# xmcd
# 
# Track frame offsets:
#     150
#     14166
#     33328
#     50848
#     67109
#     78649
#     92914
#     107950
#     130052
# 
# Disc length: 2050
# 
# Revision: 0
# Processed by: cddbd v1.5.2PL0 Copyright (c) Steve Scherf et al.
# Submitted via: fre:ac v1.1beta1pre5
# 
DISCID=83080009
DTITLE=Pata Negra - Blues de la Frontera
DYEAR=1987
DGENRE=Flamenco - Blues
TTITLE0=Bodas de sangre
TTITLE1=Blues de la frontera
TTITLE2=Pasa la vida
TTITLE3=Yo me quedo en Sevilla
TTITLE4=How high the moon
TTITLE5=Camaron
TTITLE6=Calle Betis
TTITLE7=Lindo gatito
TTITLE8=Lunatico
EXTD=
EXTT0=
EXTT1=
EXTT2=
EXTT3=
EXTT4=
EXTT5=
EXTT6=
EXTT7=
EXTT8=
PLAYORDER=
